<svg height="512" width="512" xmlns="http://www.w3.org/2000/svg"><linearGradient id="a" gradientUnits="userSpaceOnUse" x1="256" x2="256" y1="496" y2="16"><stop offset="0" stop-color="#12c2e9"/><stop offset=".056" stop-color="#19bfe9"/><stop offset=".137" stop-color="#2db6ea"/><stop offset=".235" stop-color="#4da7ea"/><stop offset=".344" stop-color="#7993eb"/><stop offset=".462" stop-color="#b279ed"/><stop offset=".497" stop-color="#c471ed"/><stop offset="1" stop-color="#f64f59"/></linearGradient><path d="M104 496h304a40.045 40.045 0 0040-40V120a8 8 0 00-2.343-5.657l-96-96A8 8 0 00344 16H104a40.045 40.045 0 00-40 40v400a40.045 40.045 0 0040 40zM352 43.313L420.687 112H376a24.028 24.028 0 01-24-24zM80 56a24.028 24.028 0 0124-24h232v56a40.045 40.045 0 0040 40h56v328a24.028 24.028 0 01-24 24H104a24.028 24.028 0 01-24-24zm136 104a8 8 0 018-8h64a8 8 0 010 16h-64a8 8 0 01-8-8zm33.854 229.121a8 8 0 0012.292 0l80-96A8 8 0 00336 280h-40v-88a8 8 0 00-8-8h-64a8 8 0 00-8 8v88h-40a8 8 0 00-6.146 13.121zM224 296a8 8 0 008-8v-88h48v88a8 8 0 008 8h30.92L256 371.5 193.08 296z" fill="url(#a)"/></svg>
